HIERARCHY
ROOT Hips
{
	OFFSET 0.000000 0.000000 0.000000
	CHANNELS 6 Xposition Yposition Zposition Zrotation Yrotation Xrotation 
	JOINT LHipJoint
	{
		OFFSET 0.000000 0.000000 0.000000
		CHANNELS 3 Zrotation Yrotation Xrotation
		JOINT LeftUpLeg
		{
			OFFSET 1.363060 -1.794630 0.839290
			CHANNELS 3 Zrotation Yrotation Xrotation
			JOINT LeftLeg
			{
				OFFSET 2.448110 -6.726130 0.000000
				CHANNELS 3 Zrotation Yrotation Xrotation
				JOINT LeftFoot
				{
					OFFSET 2.562200 -7.039590 0.000000
					CHANNELS 3 Zrotation Yrotation Xrotation
					JOINT LeftToeBase
					{
						OFFSET 0.157640 -0.433110 2.322550
						CHANNELS 3 Zrotation Yrotation Xrotation
						End Site
						{
							OFFSET 0.000000 0.000000 0.000000
						}
					}
				}
			}
		}
	}
	JOINT RHipJoint
	{
		OFFSET 0.000000 0.000000 0.000000
		CHANNELS 3 Zrotation Yrotation Xrotation
		JOINT RightUpLeg
		{
			OFFSET -1.305520 -1.794630 0.839290
			CHANNELS 3 Zrotation Yrotation Xrotation
			JOINT RightLeg
			{
				OFFSET -2.542530 -6.985550 0.000000
				CHANNELS 3 Zrotation Yrotation Xrotation
				JOINT RightFoot
				{
					OFFSET -2.568260 -7.056230 0.000000
					CHANNELS 3 Zrotation Yrotation Xrotation
					JOINT RightToeBase
					{
						OFFSET -0.164730 -0.452590 2.363150
						CHANNELS 3 Zrotation Yrotation Xrotation
						End Site
						{
							OFFSET 0.000000 0.000000 0.000000
						}
					}
				}
			}
		}
	}
}
MOTION
Frames: 16
Frame Time: 0.008333
1.781862 17.151608 1.514168 -106.002496 -84.608040 123.083955 -9.922251 -0.071122 6.115617 0.718308 -7.663887 -46.760550 0.393563 1.084904 42.724102 3.708030 17.622467 -11.408004 -0.406400 -0.000001 -13.117700 7.259199 -2.912680 5.715725 22.619383 8.427926 -6.141359 4.210846 2.421748 -0.199424 -0.800572 -0.656868 -11.260391 -179.873800 -0.000000 -20.631000
1.514998 17.142735 1.502928 -113.527229 -84.411904 130.577396 -9.862038 -0.046754 6.278456 0.499503 -7.319589 -47.223541 0.205589 0.865337 38.843779 3.663913 17.022339 -10.900760 -0.164101 -0.000000 -14.731300 7.232482 -2.971879 5.510754 22.532755 7.718137 -4.493326 4.224777 2.505745 -1.224881 -0.638560 -0.117113 -10.548946 -179.928601 -0.000000 -20.254399
1.246716 17.130569 1.495097 -119.826379 -84.135648 136.820971 -9.864748 -0.045483 6.401583 0.204230 -6.745904 -47.553917 -0.010956 0.618366 34.770862 3.555138 16.191848 -10.254229 0.101400 0.000000 -16.637800 7.165671 -3.072293 5.303467 22.446102 7.011186 -2.884054 4.250620 2.549301 -2.122499 -0.446025 0.565516 -9.684070 -179.983400 0.000000 -19.151200
0.977643 17.115583 1.490148 -124.764021 -83.808028 141.657908 -9.908237 -0.064556 6.471405 -0.208425 -5.941868 -47.742976 -0.270470 0.344261 30.564856 3.372080 15.099835 -9.544203 0.348500 0.000001 -18.492700 7.088138 -3.207782 5.085607 22.350692 6.279219 -1.304527 4.285221 2.548275 -2.866845 -0.226078 1.402243 -8.678829 179.974200 -0.000000 -17.390700
0.708000 17.098131 1.487644 -128.516615 -83.448916 145.254288 -9.974474 -0.098694 6.481249 -0.769272 -4.917929 -47.798364 -0.584231 0.045869 26.298678 3.107244 13.718305 -8.821471 0.545600 -0.000001 -20.222300 7.018257 -3.369253 4.854372 22.233625 5.510200 0.244607 4.324974 2.502321 -3.431886 0.013098 2.382364 -7.553483 179.958000 0.000000 -15.030200
0.437603 17.078567 1.487063 -131.371428 -83.073376 147.897463 -10.049799 -0.144916 6.433708 -1.491066 -3.709460 -47.746073 -0.954637 -0.272677 22.057406 2.758465 12.035323 -8.098642 0.676800 0.000001 -22.104100 6.963933 -3.547577 4.613463 22.079384 4.710204 1.749201 4.365414 2.414640 -3.794928 0.258448 3.472521 -6.349876 179.980500 -0.000000 -12.238100
0.166691 17.057265 1.487925 -133.619333 -82.700690 149.861305 -10.120171 -0.204490 6.329706 -2.374519 -2.375501 -47.585625 -1.376108 -0.605863 17.947198 2.331810 10.047875 -7.427209 0.722200 0.000000 -24.102800 6.932210 -3.735948 4.353169 21.862087 3.841766 3.212402 4.401784 2.286959 -3.935991 0.501032 4.658276 -5.108548 -179.949200 -0.000000 -9.151800
-0.105243 17.034519 1.489799 -135.442588 -82.343960 151.337498 -10.174849 -0.280437 6.184374 -3.376293 -1.003670 -47.347404 -1.828325 -0.946042 14.084367 1.846189 7.787541 -6.843953 0.680600 -0.000000 -26.280400 6.922208 -3.927841 4.078319 21.569990 2.915163 4.615801 4.429518 2.126304 -3.848226 0.726866 5.889068 -3.900525 -179.830200 -0.000000 -6.191800
-0.377745 17.010782 1.491931 -137.053898 -82.032658 152.519483 -10.200804 -0.370955 6.009090 -4.446148 0.291044 -46.999488 -2.282252 -1.282922 10.567183 1.332097 5.330218 -6.388373 0.564500 0.000000 -28.611200 6.944950 -4.120848 3.768284 21.158723 1.852657 5.963973 4.442653 1.930493 -3.519538 0.935673 7.171724 -2.716252 -179.661200 0.000000 -3.027599
-0.652026 16.986172 1.494013 -138.444128 -81.769308 153.444534 -10.199517 -0.474955 5.838990 -5.468051 1.394923 -46.595351 -2.701735 -1.604668 7.479096 0.827827 2.792714 -6.073388 0.405700 0.000000 -31.178500 6.988182 -4.307614 3.447959 20.653230 0.746221 7.218538 4.439168 1.714029 -2.971486 1.111517 8.406323 -1.650814 -179.460100 -0.000000 -0.461600
-0.928353 16.961004 1.495279 -139.703877 -81.571921 154.214447 -10.171137 -0.583733 5.696489 -6.355340 2.200638 -46.112967 -3.057860 -1.899713 4.860890 0.370326 0.320808 -5.917553 0.237600 0.000000 -33.817400 7.055272 -4.486331 3.114833 20.039769 -0.409235 8.371739 4.415028 1.478041 -2.220039 1.256026 9.566055 -0.662092 0.765100 -0.000000 -1.907900
-1.207441 16.935539 1.495153 -140.841398 -81.444533 154.866998 -10.124028 -0.688666 5.602146 -7.026636 2.641926 -45.558885 -3.331943 -2.156779 2.734676 -0.013801 -1.942569 -5.918548 0.091600 0.000000 -36.318100 7.139121 -4.653465 2.784752 19.342679 -1.543390 9.415325 4.368691 1.229836 -1.304517 1.367111 10.588947 0.266021 1.002000 0.000000 -4.034501
-1.489760 16.910068 1.493074 -141.885793 -81.389188 155.451106 -10.066575 -0.779039 5.565064 -7.443919 2.694633 -44.941359 -3.518777 -2.364809 1.111968 -0.311618 -3.876363 -6.052675 -0.012700 0.000000 -38.476100 7.234757 -4.807427 2.472034 18.586875 -2.592072 10.351737 4.298571 0.973341 -0.268460 1.447219 11.436904 1.196743 1.247700 0.000000 -6.175100
-1.775768 16.884830 1.488679 -142.862236 -81.403976 156.008470 -10.006492 -0.844334 5.585150 -7.610910 2.375110 -44.287751 -3.624277 -2.513308 0.006293 -0.522650 -5.396529 -6.275902 -0.070800 -0.000000 -40.164000 7.336323 -4.947800 2.193014 17.806079 -3.485474 11.187012 4.203904 0.711739 0.844255 1.499898 12.089363 2.201674 1.506199 0.000000 -8.556100
-2.065560 16.859959 1.481543 -143.889656 -81.485935 156.670050 -9.944536 -0.872702 5.655283 -7.573312 1.716367 -43.632640 -3.660571 -2.594080 -0.577699 -0.652085 -6.439676 -6.526444 -0.091200 0.000001 -41.350000 7.446544 -5.082146 1.964003 17.014228 -4.161441 11.926815 4.073686 0.434323 1.967489 1.530035 12.528277 3.622904 1.832401 -0.000000 -14.035400
-2.359208 16.835647 1.471708 -144.992532 -81.627206 157.467918 -9.885042 -0.858670 5.765884 -7.382905 0.777817 -43.025334 -3.640368 -2.601155 -0.631288 -0.709786 -6.984543 -6.739237 -0.089900 0.000001 -42.079300 7.560065 -5.210152 1.795587 16.248801 -4.579585 12.571088 3.907954 0.145781 3.071842 1.537338 12.787283 5.501956 2.241400 -0.000000 -22.416100
